HIERARCHY
ROOT newVegas:Hips
{
	OFFSET 0.000000 96.479958 0.000000
	CHANNELS 6 Xposition Yposition Zposition Xrotation Yrotation Zrotation
	JOINT newVegas:Pelvis
	{
		OFFSET 0.000000 0.000000 0.000000
		CHANNELS 3 Xrotation Yrotation Zrotation
		JOINT newVegas:LeftUpLeg
		{
			OFFSET 18.735201 -5.666702 -4.541200
			CHANNELS 3 Xrotation Yrotation Zrotation
			JOINT newVegas:LeftLeg
			{
				OFFSET -0.021200 -31.938179 0.493100
				CHANNELS 3 Xrotation Yrotation Zrotation
				JOINT newVegas:LeftFoot
				{
					OFFSET 0.021200 -31.938179 -4.336299
					CHANNELS 3 Xrotation Yrotation Zrotation
					JOINT newVegas:LeftToeBase
					{
						OFFSET 0.943001 -26.722000 15.023500
						CHANNELS 3 Xrotation Yrotation Zrotation
						End Site
						{
							OFFSET 0.000000 30.670183 0.000000
						}
					}
				}
				JOINT newVegas:Left_PantLeg
				{
					OFFSET 0.663870 -9.044666 -1.108900
					CHANNELS 3 Xrotation Yrotation Zrotation
					End Site
					{
						OFFSET 1.415995 20.635357 0.000000
					}
				}
			}
		}
		JOINT newVegas:RightUpLeg
		{
			OFFSET -18.735201 -5.666702 -4.541200
			CHANNELS 3 Xrotation Yrotation Zrotation
			JOINT newVegas:RightLeg
			{
				OFFSET 0.018946 -31.938133 0.493100
				CHANNELS 3 Xrotation Yrotation Zrotation
				JOINT newVegas:RightFoot
				{
					OFFSET -0.018946 -31.938126 -4.336299
					CHANNELS 3 Xrotation Yrotation Zrotation
					JOINT newVegas:RightToeBase
					{
						OFFSET -0.943001 -26.722004 15.023500
						CHANNELS 3 Xrotation Yrotation Zrotation
						End Site
						{
							OFFSET 0.000000 30.670187 0.000000
						}
					}
				}
				JOINT newVegas:Right_PantLeg
				{
					OFFSET -0.661674 -9.044716 -1.108900
					CHANNELS 3 Xrotation Yrotation Zrotation
					End Site
					{
						OFFSET -1.415958 20.635269 0.000000
					}
				}
			}
		}
	}
	JOINT newVegas:Spine
	{
		OFFSET 0.000000 10.199997 -0.299500
		CHANNELS 3 Xrotation Yrotation Zrotation
		JOINT newVegas:Spine1
		{
			OFFSET 0.000000 11.900002 -1.516600
			CHANNELS 3 Xrotation Yrotation Zrotation
			JOINT newVegas:Spine2
			{
				OFFSET 0.000000 13.600006 -2.842500
				CHANNELS 3 Xrotation Yrotation Zrotation
				JOINT newVegas:Neck
				{
					OFFSET 0.000000 9.624100 -2.890100
					CHANNELS 3 Xrotation Yrotation Zrotation
					JOINT newVegas:Head
					{
						OFFSET 0.000000 14.068802 -1.351900
						CHANNELS 3 Xrotation Yrotation Zrotation
						JOINT newVegas:Hair_Back
						{
							OFFSET 0.000000 3.231903 -17.524799
							CHANNELS 3 Xrotation Yrotation Zrotation
							End Site
							{
								OFFSET 0.000000 19.849884 0.000000
							}
						}
						JOINT newVegas:Hair_Front
						{
							OFFSET 0.000000 31.260406 4.573800
							CHANNELS 3 Xrotation Yrotation Zrotation
							JOINT newVegas:Hair_Front1
							{
								OFFSET 0.000000 2.284103 11.993300
								CHANNELS 3 Xrotation Yrotation Zrotation
								JOINT newVegas:Hair_Front2
								{
									OFFSET 0.000000 2.284103 11.993300
									CHANNELS 3 Xrotation Yrotation Zrotation
									End Site
									{
										OFFSET 0.000000 12.208862 0.000000
									}
								}
							}
						}
						JOINT newVegas:Jowel
						{
							OFFSET 0.000000 -7.458206 6.864100
							CHANNELS 3 Xrotation Yrotation Zrotation
							End Site
							{
								OFFSET 0.000000 19.849884 0.000000
							}
						}
					}
				}
				JOINT newVegas:LeftShoulder
				{
					OFFSET 15.263000 10.923401 -0.547700
					CHANNELS 3 Xrotation Yrotation Zrotation
					JOINT newVegas:LeftArm
					{
						OFFSET 25.438599 -2.830597 -13.032500
						CHANNELS 3 Xrotation Yrotation Zrotation
						JOINT newVegas:LeftForeArm
						{
							OFFSET 29.960503 0.000000 0.000000
							CHANNELS 3 Xrotation Yrotation Zrotation
							JOINT newVegas:LeftHand
							{
								OFFSET 27.849251 0.000000 0.000000
								CHANNELS 3 Xrotation Yrotation Zrotation
								JOINT newVegas:LeftHandThumb1
								{
									OFFSET 4.487587 -3.305161 6.305391
									CHANNELS 3 Xrotation Yrotation Zrotation
									JOINT newVegas:LeftHandThumb2
									{
										OFFSET 5.480453 -3.164139 3.164143
										CHANNELS 3 Xrotation Yrotation Zrotation
										JOINT newVegas:LeftHandThumb3
										{
											OFFSET 5.159721 -2.978973 2.978967
											CHANNELS 3 Xrotation Yrotation Zrotation
											End Site
											{
												OFFSET 2.494507 5.926697 1.738678
											}
										}
									}
								}
								JOINT newVegas:LeftHandIndex1
								{
									OFFSET 18.578728 -0.527832 5.208049
									CHANNELS 3 Xrotation Yrotation Zrotation
									JOINT newVegas:LeftHandIndex2
									{
										OFFSET 3.192009 0.000000 0.000000
										CHANNELS 3 Xrotation Yrotation Zrotation
										JOINT newVegas:LeftHandIndex3
										{
											OFFSET 3.835129 0.000000 0.000000
											CHANNELS 3 Xrotation Yrotation Zrotation
											End Site
											{
												OFFSET -0.034599 3.816971 0.371180
											}
										}
									}
								}
								JOINT newVegas:LeftHandMiddle1
								{
									OFFSET 18.476105 0.000000 0.000000
									CHANNELS 3 Xrotation Yrotation Zrotation
									JOINT newVegas:LeftHandMiddle2
									{
										OFFSET 3.324875 0.000000 0.000000
										CHANNELS 3 Xrotation Yrotation Zrotation
										JOINT newVegas:LeftHandMiddle3
										{
											OFFSET 4.596550 0.000000 0.000000
											CHANNELS 3 Xrotation Yrotation Zrotation
											End Site
											{
												OFFSET 0.057701 4.578827 0.399218
											}
										}
									}
								}
								JOINT newVegas:LeftHandRing1
								{
									OFFSET 17.732719 0.121887 -4.201567
									CHANNELS 3 Xrotation Yrotation Zrotation
									JOINT newVegas:LeftHandRing2
									{
										OFFSET 2.733170 0.000000 0.000000
										CHANNELS 3 Xrotation Yrotation Zrotation
										JOINT newVegas:LeftHandRing3
										{
											OFFSET 3.178268 0.000000 0.000000
											CHANNELS 3 Xrotation Yrotation Zrotation
											End Site
											{
												OFFSET 0.119102 3.170624 0.185394
											}
										}
									}
								}
								JOINT newVegas:LeftHandPinky1
								{
									OFFSET 15.989624 -0.606689 -7.535461
									CHANNELS 3 Xrotation Yrotation Zrotation
									JOINT newVegas:LeftHandPinky2
									{
										OFFSET 2.538986 0.000000 0.000000
										CHANNELS 3 Xrotation Yrotation Zrotation
										JOINT newVegas:LeftHandPinky3
										{
											OFFSET 2.593102 0.000000 0.000000
											CHANNELS 3 Xrotation Yrotation Zrotation
											End Site
											{
												OFFSET -0.150902 2.584198 0.152708
											}
										}
									}
								}
							}
							JOINT newVegas:Left_Sleeve
							{
								OFFSET 0.267448 -0.649796 0.577675
								CHANNELS 3 Xrotation Yrotation Zrotation
								End Site
								{
									OFFSET 0.000000 15.991241 0.000000
								}
							}
							JOINT newVegas:Left_CapeC
							{
								OFFSET 15.715958 -8.608795 -6.935905
								CHANNELS 3 Xrotation Yrotation Zrotation
								JOINT newVegas:Left_CapeC1
								{
									OFFSET 0.000000 -8.688499 0.000000
									CHANNELS 3 Xrotation Yrotation Zrotation
									End Site
									{
										OFFSET 0.000000 8.688499 0.000000
									}
								}
							}
						}
						JOINT newVegas:Left_CapeB
						{
							OFFSET 26.118385 -8.608795 -7.079235
							CHANNELS 3 Xrotation Yrotation Zrotation
							JOINT newVegas:Left_CapeB1
							{
								OFFSET 0.000000 -8.688499 0.000000
								CHANNELS 3 Xrotation Yrotation Zrotation
								End Site
								{
									OFFSET 0.000000 8.688499 0.000000
								}
							}
						}
						JOINT newVegas:Left_CapeA
						{
							OFFSET 5.115639 -8.608795 -10.395809
							CHANNELS 3 Xrotation Yrotation Zrotation
							JOINT newVegas:Left_CapeA1
							{
								OFFSET 0.000000 -8.688499 0.000000
								CHANNELS 3 Xrotation Yrotation Zrotation
								End Site
								{
									OFFSET 0.000000 8.688499 0.000000
								}
							}
						}
					}
				}
				JOINT newVegas:RightShoulder
				{
					OFFSET -15.263000 10.923401 -0.547700
					CHANNELS 3 Xrotation Yrotation Zrotation
					JOINT newVegas:RightArm
					{
						OFFSET -25.438599 -2.830597 -13.032500
						CHANNELS 3 Xrotation Yrotation Zrotation
						JOINT newVegas:RightForeArm
						{
							OFFSET -29.960503 0.000000 0.000000
							CHANNELS 3 Xrotation Yrotation Zrotation
							JOINT newVegas:RightHand
							{
								OFFSET -27.849251 0.000000 0.000000
								CHANNELS 3 Xrotation Yrotation Zrotation
								JOINT newVegas:RightHandThumb1
								{
									OFFSET -4.487587 -3.305161 6.305391
									CHANNELS 3 Xrotation Yrotation Zrotation
									JOINT newVegas:RightHandThumb2
									{
										OFFSET -5.480453 -3.164139 3.164143
										CHANNELS 3 Xrotation Yrotation Zrotation
										JOINT newVegas:RightHandThumb3
										{
											OFFSET -5.159721 -2.978973 2.978967
											CHANNELS 3 Xrotation Yrotation Zrotation
											End Site
											{
												OFFSET -2.494507 5.926697 1.738678
											}
										}
									}
								}
								JOINT newVegas:RightHandIndex1
								{
									OFFSET -18.578728 -0.527832 5.208049
									CHANNELS 3 Xrotation Yrotation Zrotation
									JOINT newVegas:RightHandIndex2
									{
										OFFSET -3.192009 0.000000 0.000000
										CHANNELS 3 Xrotation Yrotation Zrotation
										JOINT newVegas:RightHandIndex3
										{
											OFFSET -3.835129 0.000000 0.000000
											CHANNELS 3 Xrotation Yrotation Zrotation
											End Site
											{
												OFFSET 0.034599 3.816971 0.371180
											}
										}
									}
								}
								JOINT newVegas:RightHandMiddle1
								{
									OFFSET -18.476105 0.000000 0.000000
									CHANNELS 3 Xrotation Yrotation Zrotation
									JOINT newVegas:RightHandMiddle2
									{
										OFFSET -3.324875 0.000000 0.000000
										CHANNELS 3 Xrotation Yrotation Zrotation
										JOINT newVegas:RightHandMiddle3
										{
											OFFSET -4.596550 0.000000 0.000000
											CHANNELS 3 Xrotation Yrotation Zrotation
											End Site
											{
												OFFSET -0.057701 4.578827 0.399218
											}
										}
									}
								}
								JOINT newVegas:RightHandRing1
								{
									OFFSET -17.732719 0.121887 -4.201567
									CHANNELS 3 Xrotation Yrotation Zrotation
									JOINT newVegas:RightHandRing2
									{
										OFFSET -2.733170 0.000000 0.000000
										CHANNELS 3 Xrotation Yrotation Zrotation
										JOINT newVegas:RightHandRing3
										{
											OFFSET -3.178268 0.000000 0.000000
											CHANNELS 3 Xrotation Yrotation Zrotation
											End Site
											{
												OFFSET -0.119102 3.170624 0.185394
											}
										}
									}
								}
								JOINT newVegas:RightHandPinky1
								{
									OFFSET -15.989624 -0.606689 -7.535461
									CHANNELS 3 Xrotation Yrotation Zrotation
									JOINT newVegas:RightHandPinky2
									{
										OFFSET -2.538986 0.000000 0.000000
										CHANNELS 3 Xrotation Yrotation Zrotation
										JOINT newVegas:RightHandPinky3
										{
											OFFSET -2.593102 0.000000 0.000000
											CHANNELS 3 Xrotation Yrotation Zrotation
											End Site
											{
												OFFSET 0.150902 2.584198 0.152708
											}
										}
									}
								}
							}
							JOINT newVegas:Right_CapeC
							{
								OFFSET -15.715958 -8.608795 -6.935905
								CHANNELS 3 Xrotation Yrotation Zrotation
								JOINT newVegas:Right_CapeC1
								{
									OFFSET 0.000000 -8.688499 0.000000
									CHANNELS 3 Xrotation Yrotation Zrotation
									End Site
									{
										OFFSET 0.000000 8.688499 0.000000
									}
								}
							}
							JOINT newVegas:Right_Sleeve
							{
								OFFSET -0.267448 -0.649994 0.577675
								CHANNELS 3 Xrotation Yrotation Zrotation
								End Site
								{
									OFFSET 0.000000 15.991302 0.000000
								}
							}
						}
						JOINT newVegas:Right_CapeA
						{
							OFFSET -5.115540 -8.608795 -10.395824
							CHANNELS 3 Xrotation Yrotation Zrotation
							JOINT newVegas:Right_CapeA1
							{
								OFFSET 0.000000 -8.688499 0.000000
								CHANNELS 3 Xrotation Yrotation Zrotation
								End Site
								{
									OFFSET 0.000000 8.688499 0.000000
								}
							}
						}
						JOINT newVegas:Right_CapeB
						{
							OFFSET -26.118187 -8.608795 -7.079266
							CHANNELS 3 Xrotation Yrotation Zrotation
							JOINT newVegas:Right_CapeB1
							{
								OFFSET 0.000000 -8.688499 0.000000
								CHANNELS 3 Xrotation Yrotation Zrotation
								End Site
								{
									OFFSET 0.000000 8.688499 0.000000
								}
							}
						}
					}
				}
				JOINT newVegas:Left_Collar
				{
					OFFSET 18.625099 8.655502 8.828100
					CHANNELS 3 Xrotation Yrotation Zrotation
					JOINT newVegas:Left_Collar1
					{
						OFFSET 14.783401 10.540405 -1.259500
						CHANNELS 3 Xrotation Yrotation Zrotation
						End Site
						{
							OFFSET 0.000000 18.199875 0.000000
						}
					}
				}
				JOINT newVegas:Collar_Back
				{
					OFFSET 0.000000 15.630707 -20.132601
					CHANNELS 3 Xrotation Yrotation Zrotation
					End Site
					{
						OFFSET 0.000000 22.523010 0.000000
					}
				}
				JOINT newVegas:Left_Peck
				{
					OFFSET 17.239599 -5.132599 25.482599
					CHANNELS 3 Xrotation Yrotation Zrotation
					End Site
					{
						OFFSET 0.000000 22.523010 0.000000
					}
				}
				JOINT newVegas:Right_Peck
				{
					OFFSET -17.239599 -5.132202 25.482599
					CHANNELS 3 Xrotation Yrotation Zrotation
					End Site
					{
						OFFSET 0.000000 22.523010 0.000000
					}
				}
				JOINT newVegas:Right_Collar
				{
					OFFSET -18.625099 8.655792 8.828100
					CHANNELS 3 Xrotation Yrotation Zrotation
					JOINT newVegas:Right_Collar1
					{
						OFFSET -14.783401 10.539993 -1.259500
						CHANNELS 3 Xrotation Yrotation Zrotation
						End Site
						{
							OFFSET 0.000000 18.199631 0.000000
						}
					}
				}
			}
		}
		JOINT newVegas:Belly
		{
			OFFSET 0.000000 -6.540398 9.014299
			CHANNELS 3 Xrotation Yrotation Zrotation
			End Site
			{
				OFFSET 0.000000 11.566666 0.000000
			}
		}
	}
	JOINT newVegas:ElvisFacialAnim_Joint
	{
		OFFSET 1.000000 -95.330101 -8.825800
		CHANNELS 3 Xrotation Yrotation Zrotation
		End Site
		{
			OFFSET 0.000000 35.315800 0.000000
		}
	}
}
MOTION
Frames: 4
Frame Time: 0.033333
0.761654 56.933136 -11.144302 12.678913 -0.954683 0.852896 0.000000 0.000000 -0.000000 -117.600667 1.036469 2.045687 90.874745 0.450939 5.016155 21.854365 0.214605 1.815212 0.000001 0.000000 -0.000000 0.000000 -0.000000 0.000000 -118.630059 -0.674342 -12.772394 97.634740 4.429805 -1.384967 13.731237 -0.520802 -8.015275 0.000000 0.000000 0.000000 0.000000 -0.000001 -0.000001 14.172590 0.215622 1.697726 26.396209 -0.034457 3.035518 26.414457 -0.201213 2.902734 3.691892 -0.254943 -0.930972 3.691891 -0.254946 -0.930972 -0.000000 0.000000 0.000000 3.691894 -0.254941 -0.930975 3.691881 -0.254945 -0.930974 -0.000000 -0.000000 -0.000000 -0.000000 0.000000 0.000000 0.683666 1.078482 -7.963051 -59.217494 -47.228870 -86.180089 -0.000002 -70.910676 -0.000003 -25.300687 -22.448658 24.318007 -20.111412 14.423544 18.631472 25.925484 2.981044 -3.888430 -0.000000 -0.000004 -0.000001 0.479478 2.528931 -21.468082 2.891862 5.611329 -54.502461 0.000000 0.000001 0.000000 0.478774 2.527127 -21.452067 2.893446 5.612445 -54.518614 0.000003 -0.000001 -0.000000 0.479470 2.528924 -21.468085 2.891886 5.611318 -54.502458 -0.000002 -0.000001 0.000001 1.954321 6.307284 -21.071352 2.910894 1.536356 -54.807316 0.000001 0.000000 0.000000 0.000002 -0.000003 0.000001 0.000002 -0.000003 0.000001 0.000001 -0.000003 0.000001 -0.000000 -0.000002 -0.000000 -0.000000 -0.000002 0.000000 -0.000000 -0.000002 -0.000000 -0.000002 -0.000002 -0.000000 2.055893 12.375074 -0.472827 -38.581966 20.564098 71.021502 -0.000111 95.269309 0.000109 -1.726840 -1.175540 -32.988052 45.837680 -8.846765 -14.823297 1.324008 -34.969483 1.434653 0.000000 -0.000003 0.000001 2.499619 -5.342783 50.120266 5.109181 -6.701588 74.616231 -0.000003 0.000001 0.000001 2.499622 -5.342755 50.120259 5.109167 -6.701575 74.616238 -0.000000 -0.000000 0.000001 2.499623 -5.342744 50.120253 5.109184 -6.701578 74.616244 -0.000002 0.000003 -0.000002 2.499631 -5.342777 50.120242 5.109167 -6.701551 74.616244 0.000000 0.000003 0.000004 0.000000 0.000004 -0.000001 -0.000001 0.000002 -0.000001 0.000000 0.000004 -0.000001 -0.000002 0.000003 -0.000001 -0.000002 0.000003 -0.000001 -0.000002 0.000003 -0.000001 -0.000002 0.000003 -0.000001 -0.000002 0.000000 0.000000 -0.000002 0.000000 0.000000 -0.000002 0.000000 0.000000 -0.000002 0.000000 0.000000 -0.000002 0.000000 0.000000 -0.000002 0.000000 0.000000 -0.000002 0.000000 0.000000 -0.000001 0.000000 0.000000 0.000000 0.000000 -0.000000 
0.766613 56.934349 -11.152332 12.557468 -0.913739 0.835513 -0.000000 0.000000 -0.000000 -117.505659 1.099317 1.993655 90.881739 0.460192 5.033773 21.849792 0.225632 1.906826 0.000001 0.000000 -0.000000 -0.000001 -0.000000 0.000000 -118.525188 -0.636593 -12.821238 97.670080 4.432663 -1.344942 13.722209 -0.521767 -8.048586 -0.000000 0.000000 0.000001 0.000001 -0.000001 -0.000000 14.150465 0.205954 1.713415 26.349594 -0.053499 3.075367 26.368113 -0.226046 2.942498 3.716365 -0.259768 -0.924653 3.716393 -0.259768 -0.924651 0.000000 -0.000000 -0.000000 3.716352 -0.259765 -0.924654 3.716391 -0.259770 -0.924651 0.000000 0.000000 -0.000000 0.000000 -0.000000 -0.000000 0.690342 1.014127 -7.995524 -59.105705 -47.010549 -86.139484 -0.000028 -71.020457 -0.000033 -25.585711 -21.824534 23.590515 -20.118862 14.446706 18.565187 25.925484 2.981040 -3.888434 0.000001 -0.000002 0.000000 0.479476 2.528945 -21.468079 2.891873 5.611343 -54.502461 -0.000003 0.000001 -0.000000 0.478760 2.527144 -21.452067 2.893469 5.612447 -54.518601 -0.000002 -0.000001 0.000000 0.479478 2.528942 -21.468075 2.891883 5.611330 -54.502464 0.000001 0.000001 0.000002 1.954319 6.307277 -21.071333 2.910894 1.536386 -54.807330 0.000003 -0.000003 -0.000003 -0.000001 0.000003 -0.000000 -0.000001 0.000003 -0.000000 -0.000002 0.000003 0.000000 0.000000 0.000001 0.000000 -0.000000 0.000000 0.000000 0.000000 0.000001 0.000000 -0.000002 -0.000000 0.000000 2.059935 12.406584 -0.478611 -38.636539 20.458046 71.123149 -0.000328 94.959512 0.000336 -1.679107 -1.164281 -32.850953 45.841484 -8.826900 -14.798360 1.324002 -34.969506 1.434648 -0.000000 -0.000003 0.000001 2.499614 -5.342779 50.120270 5.109189 -6.701597 74.616224 -0.000001 -0.000000 0.000001 2.499620 -5.342764 50.120273 5.109180 -6.701574 74.616231 -0.000001 0.000002 -0.000002 2.499613 -5.342761 50.120280 5.109205 -6.701568 74.616231 -0.000008 0.000004 0.000000 2.499621 -5.342799 50.120273 5.109177 -6.701580 74.616231 0.000002 0.000002 -0.000000 0.000001 0.000005 -0.000001 -0.000000 0.000003 -0.000001 0.000001 0.000004 -0.000000 0.000002 -0.000002 -0.000001 0.000002 -0.000001 -0.000000 0.000002 -0.000002 -0.000001 0.000002 -0.000001 -0.000000 -0.000001 0.000000 -0.000000 -0.000001 0.000000 -0.000000 -0.000001 0.000000 -0.000000 -0.000001 0.000000 -0.000000 -0.000001 0.000000 -0.000000 -0.000001 0.000000 -0.000000 -0.000001 0.000000 -0.000000 0.000001 -0.000000 -0.000000 -0.000000 0.000000 -0.000000 
0.773965 56.934326 -11.175652 12.404885 -0.860654 0.825495 -0.000002 -0.000000 -0.000000 -117.373673 1.107226 1.944717 90.848715 0.446581 4.999456 21.897230 0.232194 1.947602 -0.000001 0.000000 -0.000000 -0.000001 -0.000000 0.000000 -118.402176 -0.601941 -12.872171 97.712768 4.422649 -1.309485 13.696621 -0.522863 -8.116945 -0.000000 -0.000000 0.000000 0.000000 0.000000 -0.000000 14.137528 0.192110 1.726984 26.319239 -0.067118 3.119439 26.338272 -0.250556 2.984971 3.739051 -0.264350 -0.924901 3.739030 -0.264349 -0.924906 0.000000 0.000000 -0.000001 3.739082 -0.264354 -0.924903 3.739031 -0.264353 -0.924902 -0.000000 -0.000000 0.000000 0.000000 0.000000 -0.000000 0.697114 0.959684 -8.050180 -59.048645 -46.789579 -86.137688 0.000123 -71.114427 0.000102 -25.863911 -21.165431 22.796033 -20.113867 14.472606 18.492095 25.925481 2.981028 -3.888404 0.000002 -0.000002 -0.000003 0.479492 2.528925 -21.468073 2.891884 5.611341 -54.502451 -0.000001 -0.000001 -0.000000 0.478782 2.527132 -21.452072 2.893453 5.612447 -54.518584 0.000001 -0.000000 -0.000000 0.479497 2.528918 -21.468077 2.891891 5.611328 -54.502461 -0.000001 -0.000001 -0.000001 1.954343 6.307269 -21.071345 2.910899 1.536362 -54.807316 0.000001 -0.000002 -0.000000 0.000000 0.000004 0.000001 0.000000 0.000004 0.000001 -0.000000 0.000004 0.000001 0.000000 0.000001 -0.000000 0.000000 0.000000 -0.000001 0.000000 0.000001 -0.000000 -0.000001 0.000000 -0.000001 2.065656 12.454692 -0.512761 -38.676540 20.354681 71.193063 -0.000398 94.681858 0.000387 -1.682498 -1.132881 -32.737544 45.846272 -8.801890 -14.767007 1.324017 -34.969489 1.434692 -0.000002 -0.000004 0.000001 2.499608 -5.342785 50.120263 5.109204 -6.701583 74.616231 -0.000004 -0.000002 0.000001 2.499612 -5.342761 50.120263 5.109189 -6.701570 74.616217 0.000006 0.000000 -0.000001 2.499620 -5.342742 50.120249 5.109186 -6.701582 74.616238 -0.000003 0.000003 -0.000002 2.499618 -5.342788 50.120259 5.109169 -6.701581 74.616231 0.000000 0.000005 -0.000001 0.000001 0.000003 -0.000002 0.000000 0.000001 -0.000002 0.000001 0.000003 -0.000002 0.000001 -0.000001 0.000000 0.000001 0.000000 0.000000 0.000001 -0.000001 0.000000 0.000001 -0.000000 0.000000 -0.000000 0.000000 -0.000000 -0.000000 0.000000 -0.000000 -0.000000 0.000000 -0.000000 -0.000000 0.000000 -0.000000 -0.000000 0.000000 -0.000000 -0.000000 0.000000 -0.000000 -0.000000 0.000000 -0.000000 0.000000 0.000000 0.000000 -0.000002 -0.000000 -0.000000 
0.782072 56.933815 -11.216375 12.221901 -0.787363 0.829530 0.000001 0.000000 0.000000 -117.197645 1.055019 1.904943 90.764157 0.401361 4.889231 21.996897 0.235946 1.948695 0.000001 0.000000 0.000000 -0.000001 0.000000 -0.000000 -118.264684 -0.555065 -12.924926 97.761543 4.401544 -1.283322 13.665314 -0.523737 -8.197875 -0.000000 0.000000 0.000001 0.000000 -0.000001 -0.000001 14.133739 0.177338 1.740305 26.305509 -0.074169 3.170277 26.325286 -0.272840 3.033473 3.759114 -0.269143 -0.934625 3.759110 -0.269142 -0.934628 0.000000 -0.000000 0.000000 3.759068 -0.269137 -0.934627 3.759078 -0.269142 -0.934625 -0.000000 0.000000 -0.000000 0.000000 -0.000000 0.000000 0.703894 0.919649 -8.134997 -59.072879 -46.592170 -86.201796 0.000004 -71.136748 0.000013 -26.078817 -20.548672 22.039776 -20.096264 14.501190 18.412267 25.925492 2.981047 -3.888396 0.000001 -0.000003 -0.000003 0.479466 2.528922 -21.468080 2.891877 5.611348 -54.502475 -0.000004 0.000000 0.000000 0.478769 2.527122 -21.452058 2.893450 5.612462 -54.518614 -0.000003 -0.000000 0.000000 0.479468 2.528912 -21.468082 2.891886 5.611344 -54.502475 0.000000 -0.000001 0.000001 1.954318 6.307274 -21.071344 2.910893 1.536389 -54.807333 0.000002 -0.000002 -0.000001 -0.000000 -0.000004 -0.000001 -0.000000 -0.000004 -0.000001 -0.000001 -0.000004 -0.000000 -0.000001 0.000000 -0.000000 -0.000001 0.000000 -0.000000 -0.000001 0.000000 -0.000000 -0.000003 0.000000 -0.000000 2.071988 12.512039 -0.576583 -38.698144 20.260822 71.226128 -0.000350 94.441101 0.000285 -1.703764 -1.099506 -32.663655 45.852054 -8.771871 -14.729371 1.324010 -34.969500 1.434639 -0.000002 -0.000005 0.000003 2.499621 -5.342766 50.120263 5.109184 -6.701591 74.616244 -0.000000 -0.000000 -0.000001 2.499624 -5.342744 50.120263 5.109169 -6.701577 74.616231 -0.000001 0.000001 0.000002 2.499626 -5.342734 50.120246 5.109181 -6.701569 74.616244 -0.000003 0.000004 0.000000 2.499625 -5.342775 50.120249 5.109160 -6.701572 74.616238 0.000001 0.000001 0.000002 0.000002 0.000001 0.000001 0.000001 -0.000000 0.000001 0.000002 0.000001 0.000001 -0.000001 -0.000003 0.000001 -0.000001 -0.000003 0.000001 -0.000001 -0.000003 0.000001 -0.000001 -0.000003 0.000002 0.000000 0.000000 0.000000 0.000000 0.000000 0.000000 0.000000 0.000000 0.000000 0.000000 0.000000 0.000000 0.000000 0.000000 0.000000 0.000000 0.000000 0.000000 0.000000 0.000000 0.000000 -0.000001 -0.000000 -0.000000 0.000001 0.000000 0.000000 
